<?xml version="1.0" encoding="utf-8"?>
<!-- Generator: Adobe Illustrator 26.2.0, SVG Export Plug-In . SVG Version: 6.00 Build 0)  -->
<svg version="1.1" id="Ebene_1" xmlns="http://www.w3.org/2000/svg" xmlns:xlink="http://www.w3.org/1999/xlink" x="0px" y="0px"
	 width="353.868px" height="151.489px" viewBox="0 0 353.868 151.489" style="enable-background:new 0 0 353.868 151.489;"
	 xml:space="preserve">
<style type="text/css">
	.st0{opacity:0.3;fill:#2AABE2;}
	.st1{fill:#50AE30;}
	.st2{fill:#2A3E5E;}
	.st3{fill:#008ECE;}
	.st4{fill:#E2000F;}
	.st5{fill:#F6A500;}
</style>
<path class="st0" d="M62.118,137.019c-6.994-0.519-13.7-2.036-19.972-4.415l8.422-11.914L62.118,137.019z M87.608,16.539
	l-18.45,26.1l18.337,25.94l-18.287,25.87l18.4,26.02l18.4-26.02l-18.287-25.87l18.347-25.94L87.608,16.539z M50.568,16.539
	l-18.45,26.1l18.337,25.94l-18.287,25.87l18.4,26.02l18.4-26.02l-18.287-25.87l18.347-25.94L50.568,16.539z M16.727,21.062
	C8.982,29.002,3.166,38.751,0,49.602l13.415,18.977L0.029,87.516c3.172,10.809,8.975,20.521,16.694,28.436l15.206-21.503
	l-18.287-25.87l18.347-25.94L16.727,21.062z M95.328,5.408c-5.958-2.523-12.346-4.25-19.024-5.07l11.304,15.991L95.328,5.408z
	 M76.304,136.681c6.679-0.82,13.068-2.548,19.027-5.072l-7.723-10.92L76.304,136.681z M62.111,0
	c-6.992,0.519-13.695,2.037-19.965,4.415l8.422,11.914L62.111,0z M120.078,23.005l-13.88,19.635l18.337,25.94l-18.287,25.87
	l13.83,19.565c7.557-8.365,13.056-18.544,15.744-29.787l-11.061-15.647l11.086-15.682C133.168,41.612,127.658,31.396,120.078,23.005
	z"/>
<g id="Schriftzug">
	<path class="st1" d="M247.848,134.269v-2.47c-0.22,0.22-0.58,0.44-1.09,0.8c-0.87,0.58-4.44,2.04-7.86,2.04
		c-4.51,0-8.3-1.53-11.35-4.59c-3.06-3.13-4.58-6.84-4.58-11.28c0-4.37,1.53-8.08,4.58-11.21c3.13-3.13,6.91-4.66,11.35-4.66
		c4.29,0,8.08,1.46,11.21,4.29c3.13,2.84,4.73,6.77,4.73,11.79v15.28h-6.99V134.269z M238.898,127.939c5.02,0,8.95-3.86,8.95-9.17
		c0-5.24-3.78-9.17-8.95-9.17c-5.02,0-8.95,3.93-8.95,9.17C229.948,124.079,233.878,127.939,238.898,127.939z"/>
	<path class="st2" d="M81.388,134.269v-2.47c-0.22,0.22-0.58,0.44-1.09,0.8c-0.87,0.58-4.44,2.04-7.86,2.04
		c-4.51,0-8.3-1.53-11.35-4.59c-3.06-3.13-4.58-6.84-4.58-11.28c0-4.37,1.53-8.08,4.58-11.21c3.13-3.13,6.91-4.66,11.35-4.66
		c4.29,0,8.08,1.46,11.21,4.29c3.13,2.84,4.73,6.77,4.73,11.79v15.28h-6.99V134.269z M72.438,127.939c5.02,0,8.95-3.86,8.95-9.17
		c0-5.24-3.78-9.17-8.95-9.17c-5.02,0-8.95,3.93-8.95,9.17C63.488,124.079,67.418,127.939,72.438,127.939z"/>
	<path class="st3" d="M278.958,90.799c1.67-1.67,4.44-1.67,6.11,0s1.67,4.44,0,6.11c-1.67,1.67-4.44,1.67-6.11,0
		C277.278,95.239,277.278,92.479,278.958,90.799z M278.518,134.399v-31h6.99v31H278.518z"/>
	<path class="st4" d="M174.198,90.909c1.67-1.67,4.44-1.67,6.11,0c1.67,1.67,1.67,4.44,0,6.11c-1.67,1.67-4.44,1.67-6.11,0
		C172.528,95.349,172.528,92.589,174.198,90.909z M173.768,134.509v-31h6.99v31H173.768z"/>
	<path class="st5" d="M131.158,90.909c1.67-1.67,4.44-1.67,6.11,0c1.67,1.67,1.67,4.44,0,6.11c-1.67,1.67-4.44,1.67-6.11,0
		C129.478,95.349,129.478,92.589,131.158,90.909z M130.718,134.509v-31h6.99v31H130.718z"/>
	<path class="st3" d="M334.428,134.399h-6.99v-16.74c0-4.95,1.31-8.59,3.86-10.99c2.62-2.4,5.75-3.64,9.32-3.64s6.69,1.24,9.32,3.64
		c2.62,2.4,3.93,6.11,3.93,10.99v16.74h-6.99v-16.74c0-5.17-2.47-7.93-6.26-7.93c-3.78,0-6.19,2.69-6.19,7.93V134.399z"/>
	<path class="st3" d="M295.458,107.459c3.13-3.13,6.84-4.66,11.28-4.66c4.37,0,8.08,1.53,11.21,4.66s4.66,6.84,4.66,11.21
		c0,4.44-1.53,8.15-4.66,11.28c-3.13,3.06-6.84,4.59-11.21,4.59c-4.44,0-8.15-1.53-11.28-4.59c-3.13-3.13-4.66-6.84-4.66-11.28
		C290.798,114.299,292.328,110.589,295.458,107.459z M297.778,118.669c0,2.69,0.87,4.88,2.55,6.62c1.75,1.67,3.86,2.55,6.4,2.55
		c2.55,0,4.66-0.87,6.33-2.55c1.75-1.75,2.62-3.93,2.62-6.62s-0.87-4.88-2.62-6.55c-1.67-1.75-3.78-2.62-6.33-2.62
		s-4.66,0.87-6.4,2.62C298.658,113.799,297.778,115.979,297.778,118.669z"/>
	<path class="st1" d="M192.978,131.479v20.01h-6.99v-32.82c0-5.02,1.6-8.95,4.73-11.79s6.91-4.29,11.21-4.29
		c4.44,0,8.22,1.53,11.28,4.66c3.13,3.13,4.66,6.84,4.66,11.21c0,4.44-1.53,8.15-4.58,11.28c-3.06,3.06-6.84,4.59-11.35,4.59
		c-3.42,0-6.7-1.16-7.93-2.11L192.978,131.479z M201.928,109.279c-5.17,0-8.95,3.93-8.95,9.17c0,5.31,3.93,9.17,8.95,9.17
		c5.02,0,8.95-3.86,8.95-9.17C210.878,113.209,206.948,109.279,201.928,109.279z"/>
	<path class="st2" d="M26.768,131.479v20.01h-6.99v-32.82c0-5.02,1.6-8.95,4.73-11.79s6.91-4.29,11.21-4.29
		c4.44,0,8.22,1.53,11.28,4.66c3.13,3.13,4.66,6.84,4.66,11.21c0,4.44-1.53,8.15-4.58,11.28c-3.06,3.06-6.84,4.59-11.35,4.59
		c-3.42,0-6.7-1.16-7.93-2.11L26.768,131.479z M35.728,109.279c-5.17,0-8.95,3.93-8.95,9.17c0,5.31,3.93,9.17,8.95,9.17
		c5.02,0,8.95-3.86,8.95-9.17C44.678,113.209,40.748,109.279,35.728,109.279z"/>
	<path class="st2" d="M100.498,134.459h-6.91v-18.49c0-8.95,5.02-12.52,11.79-12.52h1.67v6.7h-1.31c-3.49,0-5.24,1.97-5.24,5.82
		L100.498,134.459L100.498,134.459z"/>
	<path class="st3" d="M273.418,128.029v6.7h-1.46c-7.06,0-12.01-3.49-12.01-12.44v-32.39h6.91v13.83h5.97v6.7h-5.97v11.86
		c0,3.86,1.67,5.75,5.1,5.75h1.46V128.029z"/>
	<path class="st5" d="M125.508,127.649v6.7h-1.45c-7.06,0-12.01-3.49-12.01-12.44v-32.39h6.91v13.83h5.97v6.7h-5.97v11.86
		c0,3.86,1.67,5.75,5.1,5.75h1.45V127.649z"/>
	<path class="st4" d="M168.638,111.579c0-7.22-5.22-8.18-11.76-8.18h-13.92v6.7h13.55c2.2,0,3.55,0.11,4.18,1.24
		c0.6,1.08,0.19,2.45-0.79,3.2l-15.11,11.62c-1.08,0.83-1.72,2.12-1.72,3.48v4.76h25.56v-6.92h-13.56l11.85-10.37
		c1.09-0.95,1.71-2.33,1.71-3.77v-1.76H168.638z"/>
	<g>
		<path class="st2" d="M67.898,81.049c0,0.31-0.13,0.59-0.38,0.84s-0.54,0.38-0.88,0.38c-0.29,0-0.58-0.13-0.89-0.4l-12.34-10.79
			v9.83c0,0.42-0.12,0.75-0.36,1.01c-0.24,0.25-0.57,0.38-0.99,0.38s-0.75-0.13-0.99-0.38s-0.36-0.59-0.36-1.01v-20.82
			c0-0.42,0.12-0.75,0.36-1.01s0.57-0.38,0.99-0.38s0.75,0.13,0.99,0.38c0.24,0.25,0.36,0.59,0.36,1.01v9.47l11.78-10.46
			c0.24-0.24,0.53-0.36,0.86-0.36s0.62,0.13,0.86,0.38s0.36,0.53,0.36,0.84c0,0.33-0.14,0.64-0.43,0.92l-10.66,9.37l11.25,9.83
			C67.738,80.369,67.898,80.689,67.898,81.049z"/>
		<path class="st2" d="M74.098,81.919c-0.24-0.25-0.36-0.59-0.36-1.01v-20.82c0-0.42,0.12-0.75,0.36-1.01
			c0.24-0.25,0.57-0.38,0.99-0.38c0.42,0,0.75,0.13,0.99,0.38c0.24,0.25,0.36,0.59,0.36,1.01v20.82c0,0.42-0.12,0.75-0.36,1.01
			c-0.24,0.25-0.57,0.38-0.99,0.38S74.338,82.169,74.098,81.919z"/>
		<path class="st2" d="M102.808,59.079c0.22,0.25,0.33,0.59,0.33,1.01v20.82c0,0.42-0.12,0.75-0.35,1.01
			c-0.23,0.25-0.56,0.38-0.97,0.38s-0.78-0.19-1.09-0.56l-13.69-18.31v17.49c0,0.42-0.12,0.75-0.35,1.01
			c-0.23,0.25-0.54,0.38-0.94,0.38s-0.71-0.13-0.92-0.38c-0.22-0.25-0.33-0.59-0.33-1.01v-20.82c0-0.42,0.12-0.75,0.35-1.01
			c0.23-0.25,0.56-0.38,0.97-0.38c0.44,0,0.81,0.19,1.12,0.56l13.66,18.31v-17.49c0-0.42,0.12-0.75,0.35-1.01
			c0.23-0.25,0.54-0.38,0.94-0.38S102.588,58.829,102.808,59.079z"/>
		<path class="st2" d="M111.568,81.769c-0.25-0.24-0.38-0.56-0.38-0.96v-20.62c0-0.4,0.13-0.71,0.38-0.96
			c0.25-0.24,0.59-0.36,1.01-0.36h6.44c3.72,0,6.59,1.01,8.63,3.02s3.05,4.88,3.05,8.6s-1.02,6.59-3.07,8.61
			c-2.05,2.02-4.92,3.04-8.61,3.04h-6.44C112.158,82.129,111.818,82.009,111.568,81.769z M118.848,79.819
			c6.03,0,9.04-3.11,9.04-9.34c0-6.2-3.01-9.31-9.04-9.31h-4.95v18.65H118.848z"/>
		<path class="st2" d="M138.268,81.769c-0.25-0.24-0.38-0.56-0.38-0.96v-20.62c0-0.4,0.13-0.71,0.38-0.96s0.59-0.36,1.01-0.36h12.34
			c0.4,0,0.7,0.1,0.92,0.3c0.22,0.2,0.33,0.47,0.33,0.82s-0.11,0.63-0.33,0.83c-0.22,0.2-0.53,0.3-0.92,0.3h-11.06v8.08h10.39
			c0.4,0,0.7,0.1,0.92,0.3c0.22,0.2,0.33,0.47,0.33,0.83c0,0.35-0.11,0.63-0.33,0.83c-0.22,0.2-0.53,0.3-0.92,0.3h-10.39v8.45h11.05
			c0.4,0,0.7,0.09,0.92,0.28s0.33,0.47,0.33,0.84c0,0.35-0.11,0.63-0.33,0.83c-0.22,0.2-0.53,0.3-0.92,0.3h-12.34
			C138.858,82.129,138.518,82.009,138.268,81.769z"/>
		<path class="st2" d="M177.388,81.209c0,0.33-0.13,0.6-0.38,0.81s-0.54,0.31-0.88,0.31c-0.51,0-0.9-0.22-1.19-0.66l-4.42-7
			c-0.57-0.9-1.17-1.52-1.78-1.86c-0.62-0.34-1.45-0.51-2.51-0.51h-4.16v8.61c0,0.42-0.12,0.75-0.36,1.01
			c-0.24,0.25-0.56,0.38-0.96,0.38c-0.42,0-0.75-0.13-0.99-0.38s-0.36-0.59-0.36-1.01v-20.72c0-0.4,0.13-0.71,0.38-0.96
			c0.25-0.24,0.59-0.36,1.01-0.36h8.18c2.53,0,4.46,0.56,5.79,1.68s2,2.77,2,4.95c0,1.85-0.53,3.33-1.6,4.46
			c-1.07,1.12-2.59,1.8-4.57,2.05c0.55,0.18,1.04,0.46,1.48,0.86s0.88,0.95,1.32,1.65l3.76,5.94
			C177.308,80.689,177.388,80.949,177.388,81.209z M168.738,70.059c1.8,0,3.15-0.37,4.04-1.12s1.34-1.88,1.34-3.4
			c0-1.5-0.44-2.61-1.32-3.33c-0.88-0.73-2.23-1.09-4.06-1.09h-6.67v8.94L168.738,70.059L168.738,70.059z"/>
		<path class="st2" d="M205.978,71.999c0.21,0.2,0.31,0.44,0.31,0.73s-0.1,0.53-0.3,0.74c-0.2,0.21-0.45,0.31-0.76,0.31h-5.97v5.94
			c0,0.31-0.1,0.56-0.3,0.76c-0.2,0.2-0.44,0.3-0.73,0.3s-0.53-0.1-0.73-0.31s-0.3-0.46-0.3-0.74v-5.94h-5.97
			c-0.29,0-0.53-0.1-0.74-0.31s-0.31-0.46-0.31-0.74c0-0.29,0.1-0.53,0.31-0.73s0.46-0.3,0.74-0.3h5.97v-5.94
			c0-0.31,0.1-0.57,0.3-0.78c0.2-0.21,0.44-0.31,0.73-0.31s0.53,0.1,0.73,0.31s0.3,0.47,0.3,0.78v5.94h5.97
			C205.528,71.709,205.768,71.809,205.978,71.999z"/>
		<path class="st2" d="M217.518,82.069c-0.29-0.2-0.43-0.5-0.43-0.89c0-0.73,0.41-1.1,1.22-1.12l0.99-0.07
			c1.12-0.07,1.96-0.41,2.51-1.04c0.55-0.63,0.83-1.63,0.83-3.02v-15.84c0-0.42,0.13-0.75,0.4-1.01s0.58-0.38,0.96-0.38
			c0.42,0,0.75,0.13,0.99,0.38c0.24,0.25,0.36,0.59,0.36,1.01v15.87c0,2.02-0.46,3.55-1.39,4.57s-2.32,1.59-4.19,1.7l-0.99,0.07
			C218.218,82.339,217.808,82.269,217.518,82.069z"/>
		<path class="st2" d="M235.568,80.019c-1.56-1.58-2.34-3.92-2.34-7v-12.94c0-0.42,0.12-0.75,0.36-1.01s0.57-0.38,0.99-0.38
			c0.4,0,0.71,0.13,0.96,0.38c0.24,0.25,0.36,0.59,0.36,1.01v13.17c0,2.27,0.56,3.97,1.67,5.11c1.11,1.14,2.74,1.72,4.9,1.72
			s3.78-0.57,4.88-1.72c1.1-1.14,1.65-2.85,1.65-5.11v-13.17c0-0.42,0.13-0.75,0.38-1.01s0.58-0.38,0.97-0.38
			c0.42,0,0.75,0.13,0.99,0.38c0.24,0.25,0.36,0.59,0.36,1.01v12.94c0,3.06-0.79,5.38-2.36,6.98c-1.57,1.6-3.87,2.39-6.88,2.39
			C239.428,82.399,237.128,81.609,235.568,80.019z"/>
		<path class="st2" d="M277.698,70.319c0.21,0.2,0.31,0.47,0.31,0.83v8.22c0,0.53-0.08,0.92-0.25,1.19
			c-0.16,0.26-0.47,0.47-0.91,0.63c-0.88,0.37-1.95,0.67-3.2,0.89s-2.51,0.33-3.76,0.33c-2.31,0-4.3-0.47-5.97-1.42
			s-2.95-2.31-3.84-4.09c-0.89-1.78-1.34-3.92-1.34-6.4c0-2.44,0.44-4.55,1.32-6.34c0.88-1.78,2.15-3.15,3.79-4.11
			c1.65-0.96,3.59-1.44,5.81-1.44c1.54,0,2.97,0.24,4.29,0.71c1.32,0.47,2.43,1.15,3.33,2.03c0.37,0.37,0.56,0.76,0.56,1.16
			c0,0.31-0.09,0.58-0.26,0.81s-0.4,0.35-0.66,0.35c-0.26,0-0.57-0.13-0.92-0.4c-1.14-0.88-2.18-1.49-3.1-1.83s-1.99-0.51-3.2-0.51
			c-2.62,0-4.62,0.83-6.02,2.48s-2.09,4.02-2.09,7.1c0,3.15,0.71,5.54,2.13,7.18c1.42,1.64,3.5,2.46,6.25,2.46
			c2.05,0,3.91-0.31,5.58-0.92v-7.06h-4.82c-0.38,0-0.67-0.1-0.89-0.3c-0.22-0.2-0.33-0.45-0.33-0.76c0-0.33,0.11-0.59,0.33-0.78
			c0.22-0.19,0.52-0.28,0.89-0.28h6.17C277.218,70.019,277.488,70.119,277.698,70.319z"/>
		<path class="st2" d="M286.178,81.769c-0.25-0.24-0.38-0.56-0.38-0.96v-20.62c0-0.4,0.13-0.71,0.38-0.96
			c0.25-0.24,0.59-0.36,1.01-0.36h12.34c0.4,0,0.7,0.1,0.92,0.3c0.22,0.2,0.33,0.47,0.33,0.82s-0.11,0.63-0.33,0.83
			c-0.22,0.2-0.53,0.3-0.92,0.3h-11.05v8.08h10.39c0.4,0,0.71,0.1,0.92,0.3c0.22,0.2,0.33,0.47,0.33,0.83
			c0,0.35-0.11,0.63-0.33,0.83c-0.22,0.2-0.53,0.3-0.92,0.3h-10.39v8.45h11.05c0.4,0,0.7,0.09,0.92,0.28s0.33,0.47,0.33,0.84
			c0,0.35-0.11,0.63-0.33,0.83c-0.22,0.2-0.53,0.3-0.92,0.3h-12.34C286.758,82.129,286.428,82.009,286.178,81.769z"/>
		<path class="st2" d="M325.628,59.079c0.22,0.25,0.33,0.59,0.33,1.01v20.82c0,0.42-0.12,0.75-0.35,1.01
			c-0.23,0.25-0.56,0.38-0.97,0.38s-0.78-0.19-1.09-0.56l-13.7-18.31v17.49c0,0.42-0.12,0.75-0.35,1.01
			c-0.23,0.25-0.54,0.38-0.94,0.38s-0.7-0.13-0.92-0.38s-0.33-0.59-0.33-1.01v-20.82c0-0.42,0.12-0.75,0.35-1.01
			s0.56-0.38,0.97-0.38c0.44,0,0.81,0.19,1.12,0.56l13.66,18.31v-17.49c0-0.42,0.12-0.75,0.35-1.01c0.23-0.25,0.54-0.38,0.94-0.38
			S325.408,58.829,325.628,59.079z"/>
		<path class="st2" d="M334.388,81.769c-0.25-0.24-0.38-0.56-0.38-0.96v-20.62c0-0.4,0.13-0.71,0.38-0.96
			c0.25-0.24,0.59-0.36,1.01-0.36h6.43c3.72,0,6.59,1.01,8.63,3.02c2.03,2.01,3.05,4.88,3.05,8.6s-1.02,6.59-3.07,8.61
			s-4.92,3.04-8.61,3.04h-6.43C334.978,82.129,334.638,82.009,334.388,81.769z M341.668,79.819c6.03,0,9.04-3.11,9.04-9.34
			c0-6.2-3.01-9.31-9.04-9.31h-4.95v18.65H341.668z"/>
	</g>
</g>
</svg>
